<svg width="17" height="14" viewBox="0 0 17 14" fill="none" xmlns="http://www.w3.org/2000/svg">
    <g id="">
        <path d="M13.338 36.54C16.326 36.54 18.798 35.784 20.754 34.272C22.722 32.76 24.09 30.726 24.858 28.17L21.042 27.144C20.526 28.956 19.626 30.378 18.342 31.41C17.058 32.442 15.39 32.958 13.338 32.958C11.502 32.958 9.966 32.544 8.73 31.716C7.506 30.888 6.582 29.73 5.958 28.242C5.346 26.754 5.046 25.02 5.058 23.04C5.07 21.06 5.382 19.326 5.994 17.838C6.606 16.35 7.524 15.192 8.748 14.364C9.972 13.536 11.502 13.122 13.338 13.122C15.39 13.122 17.058 13.638 18.342 14.67C19.626 15.702 20.526 17.124 21.042 18.936L24.858 17.91C24.09 15.354 22.722 13.32 20.754 11.808C18.798 10.296 16.326 9.54 13.338 9.54C10.746 9.54 8.538 10.11 6.714 11.25C4.89 12.39 3.492 13.974 2.52 16.002C1.56 18.018 1.08 20.364 1.08 23.04C1.08 25.716 1.56 28.068 2.52 30.096C3.492 32.112 4.89 33.69 6.714 34.83C8.538 35.97 10.746 36.54 13.338 36.54ZM27.3589 36H31.1749V25.884C31.1749 24.348 31.3969 23.124 31.8409 22.212C32.2969 21.288 32.8969 20.622 33.6409 20.214C34.3849 19.806 35.2069 19.602 36.1069 19.602C37.1389 19.602 37.9789 19.812 38.6269 20.232C39.2749 20.652 39.7729 21.204 40.1209 21.888C40.4689 22.572 40.7029 23.316 40.8229 24.12C40.9549 24.912 41.0209 25.686 41.0209 26.442V36H44.8369V25.2C44.8369 24.6 44.7829 23.904 44.6749 23.112C44.5669 22.32 44.3629 21.51 44.0629 20.682C43.7629 19.854 43.3249 19.092 42.7489 18.396C42.1849 17.688 41.4469 17.118 40.5349 16.686C39.6229 16.254 38.4949 16.038 37.1509 16.038C35.7469 16.038 34.4989 16.29 33.4069 16.794C32.3269 17.298 31.4329 17.994 30.7249 18.882V10.08H27.3589V36ZM48.0853 36H51.8833V26.19C51.8833 25.05 52.0633 23.994 52.4233 23.022C52.7833 22.05 53.4193 21.27 54.3313 20.682C54.9793 20.262 55.6933 20.016 56.4733 19.944C57.2533 19.872 57.9553 19.92 58.5793 20.088V16.56C57.7033 16.392 56.7733 16.398 55.7893 16.578C54.8173 16.758 53.9653 17.118 53.2333 17.658C52.5133 18.138 51.9133 18.804 51.4333 19.656V16.56H48.0853V36ZM60.9272 13.374H64.6892V9.72H60.9272V13.374ZM60.9272 36H64.6892V16.56H60.9272V36ZM76.0885 36.522C78.5485 36.522 80.4745 35.976 81.8665 34.884C83.2705 33.792 83.9725 32.286 83.9725 30.366C83.9725 29.358 83.7625 28.506 83.3425 27.81C82.9345 27.114 82.2505 26.514 81.2905 26.01C80.3305 25.494 79.0345 25.026 77.4025 24.606C75.8785 24.222 74.7265 23.892 73.9465 23.616C73.1785 23.328 72.6565 23.04 72.3805 22.752C72.1045 22.452 71.9665 22.086 71.9665 21.654C71.9665 20.91 72.3205 20.328 73.0285 19.908C73.7365 19.476 74.6605 19.284 75.8005 19.332C76.9885 19.38 77.9545 19.68 78.6985 20.232C79.4425 20.772 79.8805 21.504 80.0125 22.428L83.8645 21.726C83.6485 19.998 82.8025 18.618 81.3265 17.586C79.8505 16.542 77.9965 16.02 75.7645 16.02C73.4845 16.02 71.6545 16.554 70.2745 17.622C68.8945 18.678 68.2045 20.088 68.2045 21.852C68.2045 22.8 68.4085 23.61 68.8165 24.282C69.2365 24.942 69.9325 25.518 70.9045 26.01C71.8885 26.502 73.2145 26.97 74.8825 27.414C76.4065 27.822 77.5405 28.164 78.2845 28.44C79.0285 28.716 79.5145 29.01 79.7425 29.322C79.9825 29.622 80.1025 30.018 80.1025 30.51C80.1025 31.35 79.7665 32.01 79.0945 32.49C78.4345 32.97 77.5165 33.21 76.3405 33.21C75.0445 33.21 73.9585 32.922 73.0825 32.346C72.2185 31.77 71.6665 30.972 71.4265 29.952L67.5745 30.546C67.9105 32.442 68.8225 33.912 70.3105 34.956C71.7985 36 73.7245 36.522 76.0885 36.522Z" fill="white"/>
        <circle cx="91" cy="33" r="3" fill="#FFCF45"/>
    </g>

    <g id="Black">
        <path d="M13.338 36.54C16.326 36.54 18.798 35.784 20.754 34.272C22.722 32.76 24.09 30.726 24.858 28.17L21.042 27.144C20.526 28.956 19.626 30.378 18.342 31.41C17.058 32.442 15.39 32.958 13.338 32.958C11.502 32.958 9.966 32.544 8.73 31.716C7.506 30.888 6.582 29.73 5.958 28.242C5.346 26.754 5.046 25.02 5.058 23.04C5.07 21.06 5.382 19.326 5.994 17.838C6.606 16.35 7.524 15.192 8.748 14.364C9.972 13.536 11.502 13.122 13.338 13.122C15.39 13.122 17.058 13.638 18.342 14.67C19.626 15.702 20.526 17.124 21.042 18.936L24.858 17.91C24.09 15.354 22.722 13.32 20.754 11.808C18.798 10.296 16.326 9.54 13.338 9.54C10.746 9.54 8.538 10.11 6.714 11.25C4.89 12.39 3.492 13.974 2.52 16.002C1.56 18.018 1.08 20.364 1.08 23.04C1.08 25.716 1.56 28.068 2.52 30.096C3.492 32.112 4.89 33.69 6.714 34.83C8.538 35.97 10.746 36.54 13.338 36.54ZM27.3589 36H31.1749V25.884C31.1749 24.348 31.3969 23.124 31.8409 22.212C32.2969 21.288 32.8969 20.622 33.6409 20.214C34.3849 19.806 35.2069 19.602 36.1069 19.602C37.1389 19.602 37.9789 19.812 38.6269 20.232C39.2749 20.652 39.7729 21.204 40.1209 21.888C40.4689 22.572 40.7029 23.316 40.8229 24.12C40.9549 24.912 41.0209 25.686 41.0209 26.442V36H44.8369V25.2C44.8369 24.6 44.7829 23.904 44.6749 23.112C44.5669 22.32 44.3629 21.51 44.0629 20.682C43.7629 19.854 43.3249 19.092 42.7489 18.396C42.1849 17.688 41.4469 17.118 40.5349 16.686C39.6229 16.254 38.4949 16.038 37.1509 16.038C35.7469 16.038 34.4989 16.29 33.4069 16.794C32.3269 17.298 31.4329 17.994 30.7249 18.882V10.08H27.3589V36ZM48.0853 36H51.8833V26.19C51.8833 25.05 52.0633 23.994 52.4233 23.022C52.7833 22.05 53.4193 21.27 54.3313 20.682C54.9793 20.262 55.6933 20.016 56.4733 19.944C57.2533 19.872 57.9553 19.92 58.5793 20.088V16.56C57.7033 16.392 56.7733 16.398 55.7893 16.578C54.8173 16.758 53.9653 17.118 53.2333 17.658C52.5133 18.138 51.9133 18.804 51.4333 19.656V16.56H48.0853V36ZM60.9272 13.374H64.6892V9.72H60.9272V13.374ZM60.9272 36H64.6892V16.56H60.9272V36ZM76.0885 36.522C78.5485 36.522 80.4745 35.976 81.8665 34.884C83.2705 33.792 83.9725 32.286 83.9725 30.366C83.9725 29.358 83.7625 28.506 83.3425 27.81C82.9345 27.114 82.2505 26.514 81.2905 26.01C80.3305 25.494 79.0345 25.026 77.4025 24.606C75.8785 24.222 74.7265 23.892 73.9465 23.616C73.1785 23.328 72.6565 23.04 72.3805 22.752C72.1045 22.452 71.9665 22.086 71.9665 21.654C71.9665 20.91 72.3205 20.328 73.0285 19.908C73.7365 19.476 74.6605 19.284 75.8005 19.332C76.9885 19.38 77.9545 19.68 78.6985 20.232C79.4425 20.772 79.8805 21.504 80.0125 22.428L83.8645 21.726C83.6485 19.998 82.8025 18.618 81.3265 17.586C79.8505 16.542 77.9965 16.02 75.7645 16.02C73.4845 16.02 71.6545 16.554 70.2745 17.622C68.8945 18.678 68.2045 20.088 68.2045 21.852C68.2045 22.8 68.4085 23.61 68.8165 24.282C69.2365 24.942 69.9325 25.518 70.9045 26.01C71.8885 26.502 73.2145 26.97 74.8825 27.414C76.4065 27.822 77.5405 28.164 78.2845 28.44C79.0285 28.716 79.5145 29.01 79.7425 29.322C79.9825 29.622 80.1025 30.018 80.1025 30.51C80.1025 31.35 79.7665 32.01 79.0945 32.49C78.4345 32.97 77.5165 33.21 76.3405 33.21C75.0445 33.21 73.9585 32.922 73.0825 32.346C72.2185 31.77 71.6665 30.972 71.4265 29.952L67.5745 30.546C67.9105 32.442 68.8225 33.912 70.3105 34.956C71.7985 36 73.7245 36.522 76.0885 36.522Z" fill="#1A1A1A"/>
        <circle cx="91" cy="33" r="3" fill="#FFCF45"/>
    </g>

    <g id="burger-menu">
        <rect x="5" width="27" height="3" fill="white"/>
        <rect y="9" width="32" height="3" fill="white"/>
        <rect x="3" y="18" width="29" height="3" fill="white"/>
    </g>

    <g id="buttonStrel">
        <path d="M6.06445 8.18945L9.18945 5.06445C9.31315 4.94727 9.375 4.80078 9.375 4.625C9.375 4.44922 9.31315 4.30273 9.18945 4.18555L6.06445 1.06055C5.94727 0.936849 5.80078 0.875 5.625 0.875C5.44922 0.875 5.30273 0.936849 5.18555 1.06055C5.06185 1.17773 5 1.32422 5 1.5C5 1.67578 5.06185 1.82227 5.18555 1.93945L7.23633 4H1.25C1.07422 4 0.924479 4.06185 0.800781 4.18555C0.683594 4.30273 0.625 4.44922 0.625 4.625C0.625 4.80078 0.683594 4.95052 0.800781 5.07422C0.924479 5.19141 1.07422 5.25 1.25 5.25H7.23633L5.18555 7.31055C5.12044 7.36914 5.07161 7.4375 5.03906 7.51562C5.01302 7.59375 5 7.67188 5 7.75C5 7.82812 5.01302 7.90625 5.03906 7.98438C5.07161 8.0625 5.12044 8.13086 5.18555 8.18945C5.30273 8.31315 5.44922 8.375 5.625 8.375C5.80078 8.375 5.94727 8.31315 6.06445 8.18945Z" fill="white"/>
    </g>

    <g id="buttonStrelBlack">
        <path d="M6.06445 8.18945L9.18945 5.06445C9.31315 4.94727 9.375 4.80078 9.375 4.625C9.375 4.44922 9.31315 4.30273 9.18945 4.18555L6.06445 1.06055C5.94727 0.936849 5.80078 0.875 5.625 0.875C5.44922 0.875 5.30273 0.936849 5.18555 1.06055C5.06185 1.17773 5 1.32422 5 1.5C5 1.67578 5.06185 1.82227 5.18555 1.93945L7.23633 4H1.25C1.07422 4 0.924479 4.06185 0.800781 4.18555C0.683594 4.30273 0.625 4.44922 0.625 4.625C0.625 4.80078 0.683594 4.95052 0.800781 5.07422C0.924479 5.19141 1.07422 5.25 1.25 5.25H7.23633L5.18555 7.31055C5.12044 7.36914 5.07161 7.4375 5.03906 7.51562C5.01302 7.59375 5 7.67188 5 7.75C5 7.82812 5.01302 7.90625 5.03906 7.98438C5.07161 8.0625 5.12044 8.13086 5.18555 8.18945C5.30273 8.31315 5.44922 8.375 5.625 8.375C5.80078 8.375 5.94727 8.31315 6.06445 8.18945Z" fill="#111111"/>
    </g>

    <g id="cosochki_1">
        <path d="M87.5047 128.014C83.2247 128.014 79.1174 128.743 75.0293 129.408C76.3536 124.433 77.7163 119.373 79.9043 114.827C82.0923 108.222 85.5086 102.497 88.9058 96.7289C91.7463 90.489 96.7556 86.2647 100.441 80.9254C104.298 75.7363 109.557 72.284 113.722 67.9739C117.81 63.4709 123.165 61.2194 127.426 58.0459C131.879 55.194 135.756 52.0419 139.901 50.5409L150.246 45.7806L159.344 41.5563L150.035 0L138.577 3.08777C134.911 4.11702 130.439 5.31783 125.353 6.7545C120.152 7.82664 114.605 10.7643 108.425 13.4447C102.322 16.4896 95.2586 18.5481 88.6946 23.4371C82.0923 28.1116 74.4727 32.0142 67.7552 38.2755C61.2488 44.7299 53.3989 50.3265 47.6027 58.5391C41.269 66.2156 35.0122 74.2781 30.1564 83.4557C24.5329 92.2044 20.7135 101.811 16.683 111.31C13.0363 120.809 10.0998 130.523 7.70071 139.958C3.15199 158.87 1.11755 176.839 0.330641 192.214C-0.321917 207.61 0.0619402 220.411 0.868041 229.675C1.15593 234.049 1.69334 238.295 2.07719 241.232L2.55701 244.835L3.05603 244.706C6.46969 262.522 14.3281 278.893 25.7221 291.927C37.1161 304.961 51.5802 314.125 67.4412 318.359C83.3021 322.592 99.9118 321.723 115.349 315.85C130.786 309.978 144.419 299.343 154.672 285.175C164.925 271.007 171.378 253.886 173.286 235.792C175.193 217.698 172.476 199.371 165.449 182.93C158.423 166.489 147.374 152.606 133.58 142.888C119.786 133.17 103.812 128.013 87.5047 128.014ZM298.626 128.014C294.346 128.014 290.239 128.743 286.151 129.408C287.475 124.433 288.838 119.373 291.026 114.827C293.214 108.222 296.63 102.497 300.027 96.7289C302.868 90.489 307.877 86.2647 311.562 80.9254C315.42 75.7363 320.679 72.284 324.844 67.9739C328.932 63.4709 334.287 61.2194 338.547 58.0459C343 55.194 346.877 52.0419 351.023 50.5409L361.368 45.7806L370.465 41.5563L361.157 0L349.698 3.08777C346.033 4.11702 341.561 5.31783 336.475 6.7545C331.273 7.82664 325.727 10.7643 319.547 13.4447C313.462 16.511 306.38 18.5481 299.816 23.4585C293.214 28.1331 285.594 32.0357 278.877 38.297C272.37 44.7513 264.521 50.3479 258.724 58.5391C252.391 66.2156 246.134 74.2781 241.278 83.4557C235.654 92.2044 231.835 101.811 227.805 111.31C224.158 120.809 221.221 130.523 218.822 139.958C214.274 158.87 212.239 176.839 211.452 192.214C210.8 207.61 211.184 220.411 211.99 229.675C212.278 234.049 212.815 238.295 213.199 241.232L213.679 244.835L214.178 244.706C217.591 262.522 225.45 278.893 236.844 291.927C248.238 304.961 262.702 314.125 278.563 318.359C294.424 322.592 311.033 321.723 326.47 315.85C341.907 309.978 355.541 299.343 365.794 285.175C376.047 271.007 382.5 253.886 384.407 235.792C386.314 217.698 383.598 199.371 376.571 182.93C369.544 166.489 358.495 152.606 344.702 142.888C330.908 133.17 314.934 128.013 298.626 128.014Z" fill="#CFCFCF" fill-opacity="0.2"/>
    </g>

    <g id="cosochki_2">
        <path d="M297.495 192.986C301.775 192.986 305.883 192.257 309.971 191.592C308.646 196.567 307.284 201.627 305.096 206.173C302.908 212.778 299.491 218.503 296.094 224.271C293.254 230.511 288.244 234.735 284.559 240.075C280.702 245.264 275.443 248.716 271.278 253.026C267.19 257.529 261.835 259.781 257.574 262.954C253.121 265.806 249.244 268.958 245.099 270.459L234.754 275.219L225.656 279.444L234.965 321L246.423 317.912C250.089 316.883 254.561 315.682 259.647 314.245C264.848 313.173 270.395 310.236 276.575 307.555C282.678 304.51 289.741 302.452 296.305 297.563C302.908 292.888 310.527 288.986 317.245 282.724C323.751 276.27 331.601 270.674 337.397 262.461C343.731 254.784 349.988 246.722 354.844 237.544C360.467 228.796 364.287 219.189 368.317 209.69C371.964 200.191 374.9 190.477 377.299 181.042C381.848 162.13 383.882 144.161 384.669 128.786C385.322 113.39 384.938 100.589 384.132 91.3253C383.844 86.9509 383.307 82.7052 382.923 79.7675L382.443 76.1652L381.944 76.2938C378.53 58.4784 370.672 42.1068 359.278 29.0727C347.884 16.0387 333.42 6.87478 317.559 2.64126C301.698 -1.59229 285.088 -0.722543 269.651 5.14986C254.214 11.0223 240.581 21.6575 230.328 35.825C220.075 49.9926 213.622 67.1137 211.714 85.2077C209.807 103.302 212.524 121.629 219.551 138.07C226.577 154.511 237.626 168.394 251.42 178.112C265.214 187.83 281.188 192.987 297.495 192.986ZM86.3737 192.986C90.6538 192.986 94.761 192.257 98.8491 191.592C97.5248 196.567 96.1621 201.627 93.9741 206.173C91.7861 212.778 88.3698 218.503 84.9727 224.271C82.1321 230.511 77.1228 234.735 73.4378 240.075C69.58 245.264 64.3211 248.716 60.1563 253.026C56.0682 257.529 50.7134 259.781 46.4526 262.954C41.9998 265.806 38.1229 268.958 33.9772 270.459L23.6322 275.219L14.5348 279.444L23.8434 321L35.3015 317.912C38.9673 316.883 43.4393 315.682 48.5254 314.245C53.7267 313.173 59.2734 310.236 65.4535 307.555C71.5376 304.489 78.6198 302.452 85.1838 297.541C91.7861 292.867 99.4057 288.964 106.123 282.703C112.63 276.249 120.479 270.652 126.276 262.461C132.609 254.784 138.866 246.722 143.722 237.544C149.346 228.796 153.165 219.189 157.195 209.69C160.842 200.191 163.779 190.477 166.178 181.042C170.726 162.13 172.761 144.161 173.548 128.786C174.2 113.39 173.816 100.589 173.01 91.3252C172.722 86.9509 172.185 82.7052 171.801 79.7675L171.321 76.1651L170.822 76.2938C167.409 58.4784 159.55 42.1068 148.156 29.0727C136.762 16.0386 122.298 6.87476 106.437 2.64124C90.5763 -1.59231 73.9666 -0.722561 58.5296 5.14984C43.0926 11.0223 29.4591 21.6574 19.2062 35.825C8.95336 49.9926 2.50002 67.1136 0.592794 85.2077C-1.31443 103.302 1.40239 121.629 8.42894 138.07C15.4555 154.511 26.5047 168.394 40.2984 178.112C54.092 187.83 70.0664 192.987 86.3737 192.986Z" fill="#CFCFCF" fill-opacity="0.2"/>
    </g>

    <g id="strel_1">
        <path d="M26.625 3.47266L6.11719 22.75L26.625 42.0273L23.7539 44.625L0.375 22.75L23.7539 0.875L26.625 3.47266Z" fill="#737373"/>
    </g>

    <g id="strel_2">
        <path d="M0.375 3.47266L3.24609 0.875L26.625 22.75L3.24609 44.625L0.375 42.0273L20.8828 22.75L0.375 3.47266Z" fill="#737373"/>
    </g>

    <g id="shar">
        <path d="M1.96875 2.46777C3.28125 1.15527 4.875 0.499023 6.75 0.499023C8.625 0.499023 10.2188 1.15527 11.5312 2.46777C12.8438 3.78027 13.5 5.37402 13.5 7.24902C13.5 9.12402 12.8438 10.7178 11.5312 12.0303C10.2188 13.3428 8.625 13.999 6.75 13.999C4.875 13.999 3.28125 13.3428 1.96875 12.0303C0.65625 10.7178 0 9.12402 0 7.24902C0 5.37402 0.65625 3.78027 1.96875 2.46777ZM11.0391 3.59277C10.4531 4.45996 9.45703 5.20996 8.05078 5.84277C8.19141 6.14746 8.34375 6.51074 8.50781 6.93262C9.82031 6.81543 11.1094 6.79199 12.375 6.8623C12.3047 5.62012 11.8594 4.53027 11.0391 3.59277ZM6.75 1.62402C6.35156 1.62402 5.89453 1.68262 5.37891 1.7998C6.08203 2.50293 6.80859 3.52246 7.55859 4.8584C8.82422 4.34277 9.75 3.69824 10.3359 2.9248C9.28125 2.05762 8.08594 1.62402 6.75 1.62402ZM4.21875 2.25684C2.71875 3.03027 1.74609 4.2373 1.30078 5.87793H2.17969C3.70312 5.87793 5.12109 5.67871 6.43359 5.28027C5.75391 4.06152 5.01562 3.05371 4.21875 2.25684ZM1.125 6.96777V7.24902C1.125 8.67871 1.59375 9.9209 2.53125 10.9756C3.42188 9.31152 4.85156 8.06934 6.82031 7.24902C6.9375 7.20215 7.10156 7.15527 7.3125 7.1084C7.17188 6.7334 7.05469 6.45215 6.96094 6.26465C5.55469 6.70996 3.9375 6.95605 2.10938 7.00293C2.01562 7.00293 1.85156 7.00293 1.61719 7.00293C1.38281 6.97949 1.21875 6.96777 1.125 6.96777ZM6.75 12.874C7.47656 12.874 8.14453 12.7568 8.75391 12.5225C8.63672 11.5381 8.46094 10.6123 8.22656 9.74512C8.13281 9.34668 7.94531 8.77246 7.66406 8.02246C7.38281 8.09277 7.18359 8.16309 7.06641 8.2334C5.30859 9.03027 4.05469 10.1787 3.30469 11.6787C4.33594 12.4756 5.48438 12.874 6.75 12.874ZM9.77344 11.96C11.3203 10.9521 12.1758 9.59277 12.3398 7.88184C10.957 7.78809 9.79688 7.78809 8.85938 7.88184C9.11719 8.6084 9.25781 9.05371 9.28125 9.21777C9.49219 10.0381 9.65625 10.9521 9.77344 11.96Z" fill="#8C8C8C"/>
    </g>

    <g id="facebook">
        <path d="M4.5 4.99902H6.75L6.46875 7.24902H4.5V13.999H1.58203V7.24902H0V4.99902H1.58203V3.4873C1.58203 2.50293 1.82812 1.76465 2.32031 1.27246C2.8125 0.756836 3.63281 0.499023 4.78125 0.499023H6.75V2.74902H5.55469C5.10938 2.74902 4.81641 2.81934 4.67578 2.95996C4.55859 3.10059 4.5 3.33496 4.5 3.66309V4.99902Z" fill="#8C8C8C"/>
    </g>

    <g id="linkid">
        <path d="M12.4102 0.499023C12.7148 0.499023 12.9727 0.604492 13.1836 0.81543C13.3945 1.00293 13.5 1.24902 13.5 1.55371V12.8389C13.5 13.1436 13.3945 13.4131 13.1836 13.6475C12.9727 13.8818 12.7148 13.999 12.4102 13.999H1.16016C0.855469 13.999 0.585938 13.8818 0.351562 13.6475C0.117188 13.4131 0 13.1436 0 12.8389V1.55371C0 1.24902 0.105469 1.00293 0.316406 0.81543C0.550781 0.604492 0.832031 0.499023 1.16016 0.499023H12.4102ZM4.18359 11.749V5.7373H2.25V11.749H4.18359ZM2.53125 4.54199C2.71875 4.72949 2.96484 4.82324 3.26953 4.82324C3.57422 4.82324 3.82031 4.72949 4.00781 4.54199C4.21875 4.33105 4.32422 4.08496 4.32422 3.80371C4.32422 3.49902 4.23047 3.25293 4.04297 3.06543C3.85547 2.85449 3.60938 2.74902 3.30469 2.74902C3 2.74902 2.74219 2.85449 2.53125 3.06543C2.34375 3.25293 2.25 3.49902 2.25 3.80371C2.25 4.08496 2.34375 4.33105 2.53125 4.54199ZM11.25 11.749V8.2334C11.25 7.36621 11.0391 6.70996 10.6172 6.26465C10.2188 5.81934 9.69141 5.59668 9.03516 5.59668C8.33203 5.59668 7.74609 5.9248 7.27734 6.58105V5.7373H5.34375V11.749H7.27734V8.33887C7.27734 8.10449 7.30078 7.94043 7.34766 7.84668C7.53516 7.37793 7.86328 7.14355 8.33203 7.14355C8.98828 7.14355 9.31641 7.57715 9.31641 8.44434V11.749H11.25Z" fill="#8C8C8C"/>
    </g>

    <g id="youtube">
        <path d="M17.8945 3.4873C17.9648 4.75293 18 6.00684 18 7.24902C18 8.49121 17.9648 9.74512 17.8945 11.0107C17.8945 11.8076 17.6367 12.4873 17.1211 13.0498C16.6289 13.5889 16.0195 13.8584 15.293 13.8584C13.4883 13.9521 11.3906 13.999 9 13.999C6.60938 13.999 4.51172 13.9521 2.70703 13.8584C1.98047 13.8584 1.35938 13.5889 0.84375 13.0498C0.351562 12.4873 0.105469 11.8076 0.105469 11.0107C0.0351562 9.74512 0 8.49121 0 7.24902C0 6.42871 0.046875 5.1748 0.140625 3.4873C0.140625 2.69043 0.386719 2.02246 0.878906 1.4834C1.37109 0.920898 1.98047 0.639648 2.70703 0.639648C4.41797 0.545898 6.41016 0.499023 8.68359 0.499023H9H9.31641C11.5898 0.499023 13.582 0.545898 15.293 0.639648C16.0195 0.639648 16.6289 0.920898 17.1211 1.4834C17.6367 2.02246 17.8945 2.69043 17.8945 3.4873ZM7.27734 10.6943L12.375 7.24902L7.27734 3.76855V10.6943Z" fill="#8C8C8C"/>
    </g>

    <g id="twiter">
        <path d="M16.5938 2.11621C16.1719 2.77246 15.6094 3.3584 14.9062 3.87402V4.2959C14.9062 6.75684 14.0156 8.99512 12.2344 11.0107C10.4766 13.0029 8.13281 13.999 5.20312 13.999C3.32812 13.999 1.59375 13.4834 0 12.4521C0.375 12.499 0.644531 12.5225 0.808594 12.5225C2.37891 12.5225 3.78516 12.0303 5.02734 11.0459C4.30078 11.0225 3.64453 10.7998 3.05859 10.3779C2.47266 9.93262 2.07422 9.37012 1.86328 8.69043C2.14453 8.7373 2.35547 8.76074 2.49609 8.76074C2.73047 8.76074 3.03516 8.71387 3.41016 8.62012C2.63672 8.45605 1.98047 8.06934 1.44141 7.45996C0.925781 6.82715 0.667969 6.10059 0.667969 5.28027V5.24512C1.18359 5.52637 1.69922 5.66699 2.21484 5.66699C1.20703 5.01074 0.703125 4.06152 0.703125 2.81934C0.703125 2.2334 0.855469 1.6709 1.16016 1.13184C2.96484 3.3584 5.29688 4.54199 8.15625 4.68262C8.10938 4.51855 8.08594 4.26074 8.08594 3.90918C8.08594 2.94824 8.41406 2.13965 9.07031 1.4834C9.72656 0.827148 10.5352 0.499023 11.4961 0.499023C12.457 0.499023 13.2773 0.862305 13.957 1.58887C14.6602 1.47168 15.3867 1.19043 16.1367 0.745117C15.9023 1.56543 15.3984 2.19824 14.625 2.64355C15.3516 2.57324 16.0078 2.39746 16.5938 2.11621Z" fill="#8C8C8C"/>
    </g>

     <g id="logo">
        <path d="M10.242 36.54C8.43 36.54 6.864 36.09 5.544 35.19C4.236 34.29 3.222 33.066 2.502 31.518C1.794 29.958 1.44 28.206 1.44 26.262C1.44 24.306 1.8 22.56 2.52 21.024C3.24 19.476 4.26 18.258 5.58 17.37C6.912 16.47 8.49 16.02 10.314 16.02C12.15 16.02 13.692 16.47 14.94 17.37C16.2 18.258 17.148 19.476 17.784 21.024C18.432 22.572 18.756 24.318 18.756 26.262C18.756 28.206 18.432 29.952 17.784 31.5C17.136 33.048 16.182 34.278 14.922 35.19C13.662 36.09 12.102 36.54 10.242 36.54ZM10.764 33.138C12 33.138 13.008 32.844 13.788 32.256C14.568 31.668 15.138 30.858 15.498 29.826C15.858 28.794 16.038 27.606 16.038 26.262C16.038 24.918 15.852 23.73 15.48 22.698C15.12 21.666 14.556 20.862 13.788 20.286C13.032 19.71 12.066 19.422 10.89 19.422C9.642 19.422 8.616 19.728 7.812 20.34C7.008 20.952 6.408 21.774 6.012 22.806C5.628 23.838 5.436 24.99 5.436 26.262C5.436 27.546 5.628 28.71 6.012 29.754C6.408 30.786 6.996 31.608 7.776 32.22C8.568 32.832 9.564 33.138 10.764 33.138ZM16.038 36V22.014H15.606V10.08H19.386V36H16.038ZM28.4723 36.54C27.0323 36.54 25.8263 36.276 24.8543 35.748C23.8823 35.208 23.1443 34.5 22.6403 33.624C22.1483 32.736 21.9023 31.764 21.9023 30.708C21.9023 29.724 22.0763 28.86 22.4243 28.116C22.7723 27.372 23.2883 26.742 23.9723 26.226C24.6563 25.698 25.4963 25.272 26.4923 24.948C27.3563 24.696 28.3343 24.474 29.4263 24.282C30.5183 24.09 31.6643 23.91 32.8643 23.742C34.0763 23.574 35.2763 23.406 36.4643 23.238L35.0963 23.994C35.1203 22.47 34.7963 21.342 34.1243 20.61C33.4643 19.866 32.3243 19.494 30.7043 19.494C29.6843 19.494 28.7483 19.734 27.8963 20.214C27.0443 20.682 26.4503 21.462 26.1143 22.554L22.6043 21.474C23.0843 19.806 23.9963 18.48 25.3403 17.496C26.6963 16.512 28.4963 16.02 30.7403 16.02C32.4803 16.02 33.9923 16.32 35.2763 16.92C36.5723 17.508 37.5203 18.444 38.1203 19.728C38.4323 20.364 38.6243 21.036 38.6963 21.744C38.7683 22.452 38.8043 23.214 38.8043 24.03V36H35.4743V31.554L36.1223 32.13C35.3183 33.618 34.2923 34.728 33.0443 35.46C31.8083 36.18 30.2843 36.54 28.4723 36.54ZM29.1383 33.462C30.2063 33.462 31.1243 33.276 31.8923 32.904C32.6603 32.52 33.2783 32.034 33.7463 31.446C34.2143 30.858 34.5203 30.246 34.6643 29.61C34.8683 29.034 34.9823 28.386 35.0063 27.666C35.0423 26.946 35.0603 26.37 35.0603 25.938L36.2843 26.388C35.0963 26.568 34.0163 26.73 33.0443 26.874C32.0723 27.018 31.1903 27.162 30.3983 27.306C29.6183 27.438 28.9223 27.6 28.3103 27.792C27.7943 27.972 27.3323 28.188 26.9243 28.44C26.5283 28.692 26.2103 28.998 25.9703 29.358C25.7423 29.718 25.6283 30.156 25.6283 30.672C25.6283 31.176 25.7543 31.644 26.0063 32.076C26.2583 32.496 26.6423 32.832 27.1583 33.084C27.6743 33.336 28.3343 33.462 29.1383 33.462ZM47.5284 36.54C46.0884 36.54 44.8824 36.276 43.9104 35.748C42.9384 35.208 42.2004 34.5 41.6964 33.624C41.2044 32.736 40.9584 31.764 40.9584 30.708C40.9584 29.724 41.1324 28.86 41.4804 28.116C41.8284 27.372 42.3444 26.742 43.0284 26.226C43.7124 25.698 44.5524 25.272 45.5484 24.948C46.4124 24.696 47.3904 24.474 48.4824 24.282C49.5744 24.09 50.7204 23.91 51.9204 23.742C53.1324 23.574 54.3324 23.406 55.5204 23.238L54.1524 23.994C54.1764 22.47 53.8524 21.342 53.1804 20.61C52.5204 19.866 51.3804 19.494 49.7604 19.494C48.7404 19.494 47.8044 19.734 46.9524 20.214C46.1004 20.682 45.5064 21.462 45.1704 22.554L41.6604 21.474C42.1404 19.806 43.0524 18.48 44.3964 17.496C45.7524 16.512 47.5524 16.02 49.7964 16.02C51.5364 16.02 53.0484 16.32 54.3324 16.92C55.6284 17.508 56.5764 18.444 57.1764 19.728C57.4884 20.364 57.6804 21.036 57.7524 21.744C57.8244 22.452 57.8604 23.214 57.8604 24.03V36H54.5304V31.554L55.1784 32.13C54.3744 33.618 53.3484 34.728 52.1004 35.46C50.8644 36.18 49.3404 36.54 47.5284 36.54ZM48.1944 33.462C49.2624 33.462 50.1804 33.276 50.9484 32.904C51.7164 32.52 52.3344 32.034 52.8024 31.446C53.2704 30.858 53.5764 30.246 53.7204 29.61C53.9244 29.034 54.0384 28.386 54.0624 27.666C54.0984 26.946 54.1164 26.37 54.1164 25.938L55.3404 26.388C54.1524 26.568 53.0724 26.73 52.1004 26.874C51.1284 27.018 50.2464 27.162 49.4544 27.306C48.6744 27.438 47.9784 27.6 47.3664 27.792C46.8504 27.972 46.3884 28.188 45.9804 28.44C45.5844 28.692 45.2664 28.998 45.0264 29.358C44.7984 29.718 44.6844 30.156 44.6844 30.672C44.6844 31.176 44.8104 31.644 45.0624 32.076C45.3144 32.496 45.6984 32.832 46.2144 33.084C46.7304 33.336 47.3904 33.462 48.1944 33.462ZM61.0945 36V16.56H64.4425V21.276L63.9745 20.664C64.2145 20.04 64.5265 19.47 64.9105 18.954C65.2945 18.426 65.7385 17.994 66.2425 17.658C66.7345 17.298 67.2805 17.022 67.8805 16.83C68.4925 16.626 69.1165 16.506 69.7525 16.47C70.3885 16.422 71.0005 16.452 71.5885 16.56V20.088C70.9525 19.92 70.2445 19.872 69.4645 19.944C68.6965 20.016 67.9885 20.262 67.3405 20.682C66.7285 21.078 66.2425 21.558 65.8825 22.122C65.5345 22.686 65.2825 23.316 65.1265 24.012C64.9705 24.696 64.8925 25.422 64.8925 26.19V36H61.0945ZM73.5764 36V16.56H76.9244V21.276L76.4564 20.664C76.6964 20.04 77.0084 19.47 77.3924 18.954C77.7764 18.426 78.2204 17.994 78.7244 17.658C79.2164 17.298 79.7624 17.022 80.3624 16.83C80.9744 16.626 81.5984 16.506 82.2344 16.47C82.8704 16.422 83.4824 16.452 84.0704 16.56V20.088C83.4344 19.92 82.7264 19.872 81.9464 19.944C81.1784 20.016 80.4704 20.262 79.8224 20.682C79.2104 21.078 78.7244 21.558 78.3644 22.122C78.0164 22.686 77.7644 23.316 77.6084 24.012C77.4524 24.696 77.3744 25.422 77.3744 26.19V36H73.5764ZM88.1941 44.64L91.9561 34.398L92.0101 37.422L83.5321 16.56H87.4561L93.7921 32.67H92.6401L98.6881 16.56H102.504L91.7761 44.64H88.1941ZM117.085 36.522C114.721 36.522 112.795 36 111.307 34.956C109.819 33.912 108.907 32.442 108.571 30.546L112.423 29.952C112.663 30.96 113.215 31.758 114.079 32.346C114.955 32.922 116.041 33.21 117.337 33.21C118.513 33.21 119.431 32.97 120.091 32.49C120.763 32.01 121.099 31.35 121.099 30.51C121.099 30.018 120.979 29.622 120.739 29.322C120.511 29.01 120.025 28.716 119.281 28.44C118.537 28.164 117.403 27.822 115.879 27.414C114.211 26.982 112.885 26.52 111.901 26.028C110.929 25.524 110.233 24.942 109.813 24.282C109.405 23.61 109.201 22.8 109.201 21.852C109.201 20.676 109.513 19.65 110.137 18.774C110.761 17.898 111.637 17.22 112.765 16.74C113.905 16.26 115.237 16.02 116.761 16.02C118.249 16.02 119.575 16.254 120.739 16.722C121.903 17.19 122.845 17.856 123.565 18.72C124.285 19.572 124.717 20.574 124.861 21.726L121.009 22.428C120.877 21.492 120.439 20.754 119.695 20.214C118.951 19.674 117.985 19.38 116.797 19.332C115.657 19.284 114.733 19.476 114.025 19.908C113.317 20.328 112.963 20.91 112.963 21.654C112.963 22.086 113.095 22.452 113.359 22.752C113.635 23.052 114.163 23.34 114.943 23.616C115.723 23.892 116.875 24.222 118.399 24.606C120.031 25.026 121.327 25.494 122.287 26.01C123.247 26.514 123.931 27.12 124.339 27.828C124.759 28.524 124.969 29.37 124.969 30.366C124.969 32.286 124.267 33.792 122.863 34.884C121.471 35.976 119.545 36.522 117.085 36.522Z" fill="white"/>
<circle cx="103" cy="33" r="3" fill="#FFCF45"/>
    </g>
    <g id="email">
       <path fill-rule="evenodd" clip-rule="evenodd" d="M32.7031 8.05875L18.8934 19.495C18.501 19.8201 18.0074 19.998 17.4978 19.998C16.9882 19.998 16.4946 19.8201 16.1022 19.495L2.29906 8.05875C2.225 8.28168 2.18733 8.51509 2.1875 8.75V26.25C2.1875 26.8302 2.41797 27.3866 2.8282 27.7968C3.23844 28.207 3.79484 28.4375 4.375 28.4375H30.625C31.2052 28.4375 31.7616 28.207 32.1718 27.7968C32.582 27.3866 32.8125 26.8302 32.8125 26.25V8.75C32.8134 8.51521 32.7764 8.2818 32.7031 8.05875ZM4.375 4.375H30.625C31.7853 4.375 32.8981 4.83594 33.7186 5.65641C34.5391 6.47688 35 7.58968 35 8.75V26.25C35 27.4103 34.5391 28.5231 33.7186 29.3436C32.8981 30.1641 31.7853 30.625 30.625 30.625H4.375C3.21468 30.625 2.10188 30.1641 1.28141 29.3436C0.460936 28.5231 0 27.4103 0 26.25V8.75C0 7.58968 0.460936 6.47688 1.28141 5.65641C2.10188 4.83594 3.21468 4.375 4.375 4.375ZM3.91562 6.5625L16.1131 16.6316C16.5038 16.9542 16.9943 17.1313 17.501 17.1325C18.0077 17.1337 18.4991 16.9589 18.8912 16.6381L31.2112 6.5625H3.91562Z" fill="black" stroke="#FAF7F2" stroke-width="0.5"/>
    </g>
    <g id="location">
       <path d="M17.7778 14.0197C19.5558 13.82 21.1902 12.9441 22.3453 11.5717C23.5005 10.1993 24.0887 8.43477 23.9891 6.64038C23.8896 4.84599 23.1099 3.15799 21.8101 1.92306C20.5103 0.688128 18.7891 0 17 0C15.2109 0 13.4897 0.688128 12.1899 1.92306C10.8901 3.15799 10.1104 4.84599 10.0109 6.64038C9.91131 8.43477 10.4995 10.1993 11.6547 11.5717C12.8098 12.9441 14.4442 13.82 16.2222 14.0197V24.2187C16.2222 24.4259 16.3042 24.6246 16.45 24.7712C16.5959 24.9177 16.7937 25 17 25C17.2063 25 17.4041 24.9177 17.55 24.7712C17.6958 24.6246 17.7778 24.4259 17.7778 24.2187V14.0197ZM11.5556 7.03028C11.5554 6.24593 11.7231 5.47072 12.0474 4.75723C12.3718 4.04374 12.8451 3.40868 13.4352 2.89513C14.0254 2.38157 14.7187 2.00155 15.4679 1.78083C16.2172 1.56012 17.005 1.50387 17.7778 1.61592C17.786 2.10435 17.908 2.58405 18.1342 3.01651C18.3603 3.44898 18.6842 3.82218 19.0799 4.10615C19.4756 4.39013 19.932 4.57697 20.4126 4.65169C20.8932 4.72641 21.3845 4.68692 21.8471 4.53639C22.222 5.27268 22.4259 6.0848 22.4432 6.91164C22.4606 7.73848 22.2911 8.55851 21.9474 9.31003C21.6037 10.0615 21.0948 10.725 20.459 11.2504C19.8232 11.7759 19.0771 12.1496 18.2768 12.3435C17.4764 12.5375 16.6427 12.5466 15.8384 12.3701C15.034 12.1937 14.28 11.8363 13.633 11.3248C12.986 10.8133 12.4629 10.1612 12.1031 9.4173C11.7433 8.67345 11.5561 7.8573 11.5556 7.03028ZM20.808 3.12226C20.4064 2.72686 19.9462 2.39636 19.4438 2.14252C19.5542 2.41967 19.7414 2.65924 19.9832 2.83287C20.225 3.0065 20.5112 3.10692 20.808 3.12226Z" fill="black"/>
<path d="M14.158 23.6697C14.1884 23.8738 14.1307 24.0808 13.9975 24.2452C13.8644 24.4096 13.6668 24.518 13.448 24.5465C9.09967 25.1107 4.9454 26.5885 1.29848 28.8684C1.11461 28.9833 0.88936 29.0253 0.672295 28.9852C0.45523 28.9451 0.264127 28.8262 0.141028 28.6547C0.0179278 28.4832 -0.0270856 28.273 0.0158898 28.0706C0.0588652 27.8681 0.186309 27.6898 0.370185 27.575C4.22747 25.1647 8.62108 23.6029 13.2197 23.0074C13.4382 22.9795 13.6597 23.0335 13.8355 23.1577C14.0114 23.2818 14.1274 23.4659 14.158 23.6697ZM20.8411 23.6697C20.8716 23.4656 20.9878 23.2812 21.1641 23.1571C21.3403 23.0329 21.5622 22.979 21.781 23.0074C26.3796 23.6029 30.7732 25.1647 34.6305 27.575C34.7214 27.6318 34.7995 27.7048 34.8602 27.7898C34.9209 27.8748 34.963 27.9701 34.9842 28.0703C35.0054 28.1705 35.0053 28.2736 34.9837 28.3737C34.9622 28.4739 34.9198 28.5691 34.8588 28.6539C34.7979 28.7387 34.7196 28.8115 34.6285 28.8681C34.5374 28.9248 34.4352 28.9641 34.3278 28.9838C34.2204 29.0036 34.1099 29.0035 34.0025 28.9834C33.8952 28.9633 33.7932 28.9237 33.7022 28.8669C30.0551 26.5875 25.9009 25.1102 21.5527 24.5465C21.4442 24.5326 21.3398 24.4988 21.2453 24.4472C21.1508 24.3956 21.0682 24.3271 21.0021 24.2457C20.936 24.1642 20.8878 24.0715 20.8601 23.9726C20.8325 23.8738 20.826 23.7709 20.8411 23.6697Z" fill="black"/>
    </g>
    <g id="linkedin">
       <path d="M6.64583 13.9375H5.91667C4.54146 13.9375 3.85458 13.9375 3.42729 14.3648C3 14.7921 3 15.479 3 16.8542V29.25C3 30.6252 3 31.3121 3.42729 31.7394C3.85458 32.1667 4.54146 32.1667 5.91667 32.1667H6.64583C8.02104 32.1667 8.70792 32.1667 9.13521 31.7394C9.5625 31.3121 9.5625 30.6252 9.5625 29.25V16.8542C9.5625 15.479 9.5625 14.7921 9.13521 14.3648C8.70792 13.9375 8.02104 13.9375 6.64583 13.9375ZM9.5625 6.28125C9.5625 7.15149 9.2168 7.98609 8.60144 8.60144C7.98609 9.2168 7.15149 9.5625 6.28125 9.5625C5.41101 9.5625 4.57641 9.2168 3.96106 8.60144C3.3457 7.98609 3 7.15149 3 6.28125C3 5.41101 3.3457 4.57641 3.96106 3.96106C4.57641 3.3457 5.41101 3 6.28125 3C7.15149 3 7.98609 3.3457 8.60144 3.96106C9.2168 4.57641 9.5625 5.41101 9.5625 6.28125Z" stroke="black" stroke-width="2"/>
<path d="M18.0588 13.9375H16.8542C15.479 13.9375 14.7921 13.9375 14.3648 14.3648C13.9375 14.7921 13.9375 15.479 13.9375 16.8542V29.25C13.9375 30.6252 13.9375 31.3121 14.3648 31.7394C14.7921 32.1667 15.479 32.1667 16.8542 32.1667H17.5833C18.9585 32.1667 19.6454 32.1667 20.0727 31.7394C20.5 31.3121 20.5 30.6252 20.5 29.25V24.1458C20.5 21.7294 21.27 19.7708 23.545 19.7708C24.6825 19.7708 25.6042 20.7508 25.6042 21.9583V28.5208C25.6042 29.896 25.6042 30.5829 26.0315 31.0102C26.4587 31.4375 27.1456 31.4375 28.5208 31.4375H29.2485C30.6223 31.4375 31.3106 31.4375 31.7379 31.0102C32.1637 30.5829 32.1652 29.896 32.1652 28.5223L32.1667 20.5C32.1667 16.8746 28.7192 13.9375 25.3081 13.9375C23.3656 13.9375 21.6331 14.8883 20.5 16.3773C20.5 15.4585 20.5 14.9992 20.3002 14.6579C20.1738 14.442 19.9941 14.2622 19.7781 14.1358C19.4369 13.936 18.9775 13.936 18.0588 13.936V13.9375Z" stroke="black" stroke-width="2" stroke-linejoin="round"/>
    </g>
    <g id="github">
       <path d="M13.2083 32.625V28.25M13.2083 28.25C13.2083 26.3056 13.6944 24.8472 14.6667 23.875C12.672 23.8615 10.7253 23.3057 9.06712 22.2762C7.40891 21.2466 6.11185 19.7886 5.33619 18.0821C4.56053 16.3757 4.34026 14.4956 4.7026 12.6742C5.06493 10.8528 5.994 9.16986 7.375 7.83333C6.40278 5.88889 6.40278 3.94444 7.375 2C10.2917 2 12.2361 2.97222 13.2083 4.91667C16.6111 3.94444 20.0139 3.94444 23.4167 4.91667C24.3889 2.97222 26.3333 2 29.25 2C30.2222 3.94444 30.2222 5.88889 29.25 7.83333C30.631 9.16986 31.5601 10.8528 31.9224 12.6742C32.2847 14.4956 32.0645 16.3757 31.2888 18.0821C30.5132 19.7886 29.2161 21.2466 27.5579 22.2762C25.8997 23.3057 23.953 23.8615 21.9583 23.875C22.9306 24.8472 23.4167 26.3056 23.4167 28.25V32.625M13.2083 28.25C7.375 29.7083 7.375 25.3333 3 23.875" stroke="black" stroke-width="2" stroke-linecap="round" stroke-linejoin="round"/>
    </g>
    <g id="telegram">
<path d="M34.1737 3C35.2522 3 36.0659 3.9666 35.6307 5.76448L30.3514 31.1861C29.9825 32.9937 28.9134 33.4286 27.4375 32.5877L14.8449 23.086C14.7961 23.0502 14.7563 23.003 14.7288 22.9484C14.7014 22.8938 14.6871 22.8333 14.6871 22.7719C14.6871 22.7104 14.7014 22.6499 14.7288 22.5953C14.7563 22.5407 14.7961 22.4935 14.8449 22.4577L29.3864 9.04127C30.0487 8.44197 29.2445 8.15199 28.3741 8.69329L10.1239 20.4568C10.0685 20.4937 10.0057 20.5172 9.94009 20.5256C9.87452 20.534 9.80795 20.527 9.74542 20.5052L1.99687 18.0017C0.27497 17.4894 0.274969 16.2811 2.38477 15.4208L33.3884 3.20299C33.6346 3.08344 33.9014 3.01447 34.1737 3Z" stroke="black" stroke-width="1.5" stroke-linecap="round" stroke-linejoin="round"/></g>
<g id="logoDark">
<path d="M10.242 36.54C8.43 36.54 6.864 36.09 5.544 35.19C4.236 34.29 3.222 33.066 2.502 31.518C1.794 29.958 1.44 28.206 1.44 26.262C1.44 24.306 1.8 22.56 2.52 21.024C3.24 19.476 4.26 18.258 5.58 17.37C6.912 16.47 8.49 16.02 10.314 16.02C12.15 16.02 13.692 16.47 14.94 17.37C16.2 18.258 17.148 19.476 17.784 21.024C18.432 22.572 18.756 24.318 18.756 26.262C18.756 28.206 18.432 29.952 17.784 31.5C17.136 33.048 16.182 34.278 14.922 35.19C13.662 36.09 12.102 36.54 10.242 36.54ZM10.764 33.138C12 33.138 13.008 32.844 13.788 32.256C14.568 31.668 15.138 30.858 15.498 29.826C15.858 28.794 16.038 27.606 16.038 26.262C16.038 24.918 15.852 23.73 15.48 22.698C15.12 21.666 14.556 20.862 13.788 20.286C13.032 19.71 12.066 19.422 10.89 19.422C9.642 19.422 8.616 19.728 7.812 20.34C7.008 20.952 6.408 21.774 6.012 22.806C5.628 23.838 5.436 24.99 5.436 26.262C5.436 27.546 5.628 28.71 6.012 29.754C6.408 30.786 6.996 31.608 7.776 32.22C8.568 32.832 9.564 33.138 10.764 33.138ZM16.038 36V22.014H15.606V10.08H19.386V36H16.038ZM28.4723 36.54C27.0323 36.54 25.8263 36.276 24.8543 35.748C23.8823 35.208 23.1443 34.5 22.6403 33.624C22.1483 32.736 21.9023 31.764 21.9023 30.708C21.9023 29.724 22.0763 28.86 22.4243 28.116C22.7723 27.372 23.2883 26.742 23.9723 26.226C24.6563 25.698 25.4963 25.272 26.4923 24.948C27.3563 24.696 28.3343 24.474 29.4263 24.282C30.5183 24.09 31.6643 23.91 32.8643 23.742C34.0763 23.574 35.2763 23.406 36.4643 23.238L35.0963 23.994C35.1203 22.47 34.7963 21.342 34.1243 20.61C33.4643 19.866 32.3243 19.494 30.7043 19.494C29.6843 19.494 28.7483 19.734 27.8963 20.214C27.0443 20.682 26.4503 21.462 26.1143 22.554L22.6043 21.474C23.0843 19.806 23.9963 18.48 25.3403 17.496C26.6963 16.512 28.4963 16.02 30.7403 16.02C32.4803 16.02 33.9923 16.32 35.2763 16.92C36.5723 17.508 37.5203 18.444 38.1203 19.728C38.4323 20.364 38.6243 21.036 38.6963 21.744C38.7683 22.452 38.8043 23.214 38.8043 24.03V36H35.4743V31.554L36.1223 32.13C35.3183 33.618 34.2923 34.728 33.0443 35.46C31.8083 36.18 30.2843 36.54 28.4723 36.54ZM29.1383 33.462C30.2063 33.462 31.1243 33.276 31.8923 32.904C32.6603 32.52 33.2783 32.034 33.7463 31.446C34.2143 30.858 34.5203 30.246 34.6643 29.61C34.8683 29.034 34.9823 28.386 35.0063 27.666C35.0423 26.946 35.0603 26.37 35.0603 25.938L36.2843 26.388C35.0963 26.568 34.0163 26.73 33.0443 26.874C32.0723 27.018 31.1903 27.162 30.3983 27.306C29.6183 27.438 28.9223 27.6 28.3103 27.792C27.7943 27.972 27.3323 28.188 26.9243 28.44C26.5283 28.692 26.2103 28.998 25.9703 29.358C25.7423 29.718 25.6283 30.156 25.6283 30.672C25.6283 31.176 25.7543 31.644 26.0063 32.076C26.2583 32.496 26.6423 32.832 27.1583 33.084C27.6743 33.336 28.3343 33.462 29.1383 33.462ZM47.5284 36.54C46.0884 36.54 44.8824 36.276 43.9104 35.748C42.9384 35.208 42.2004 34.5 41.6964 33.624C41.2044 32.736 40.9584 31.764 40.9584 30.708C40.9584 29.724 41.1324 28.86 41.4804 28.116C41.8284 27.372 42.3444 26.742 43.0284 26.226C43.7124 25.698 44.5524 25.272 45.5484 24.948C46.4124 24.696 47.3904 24.474 48.4824 24.282C49.5744 24.09 50.7204 23.91 51.9204 23.742C53.1324 23.574 54.3324 23.406 55.5204 23.238L54.1524 23.994C54.1764 22.47 53.8524 21.342 53.1804 20.61C52.5204 19.866 51.3804 19.494 49.7604 19.494C48.7404 19.494 47.8044 19.734 46.9524 20.214C46.1004 20.682 45.5064 21.462 45.1704 22.554L41.6604 21.474C42.1404 19.806 43.0524 18.48 44.3964 17.496C45.7524 16.512 47.5524 16.02 49.7964 16.02C51.5364 16.02 53.0484 16.32 54.3324 16.92C55.6284 17.508 56.5764 18.444 57.1764 19.728C57.4884 20.364 57.6804 21.036 57.7524 21.744C57.8244 22.452 57.8604 23.214 57.8604 24.03V36H54.5304V31.554L55.1784 32.13C54.3744 33.618 53.3484 34.728 52.1004 35.46C50.8644 36.18 49.3404 36.54 47.5284 36.54ZM48.1944 33.462C49.2624 33.462 50.1804 33.276 50.9484 32.904C51.7164 32.52 52.3344 32.034 52.8024 31.446C53.2704 30.858 53.5764 30.246 53.7204 29.61C53.9244 29.034 54.0384 28.386 54.0624 27.666C54.0984 26.946 54.1164 26.37 54.1164 25.938L55.3404 26.388C54.1524 26.568 53.0724 26.73 52.1004 26.874C51.1284 27.018 50.2464 27.162 49.4544 27.306C48.6744 27.438 47.9784 27.6 47.3664 27.792C46.8504 27.972 46.3884 28.188 45.9804 28.44C45.5844 28.692 45.2664 28.998 45.0264 29.358C44.7984 29.718 44.6844 30.156 44.6844 30.672C44.6844 31.176 44.8104 31.644 45.0624 32.076C45.3144 32.496 45.6984 32.832 46.2144 33.084C46.7304 33.336 47.3904 33.462 48.1944 33.462ZM61.0945 36V16.56H64.4425V21.276L63.9745 20.664C64.2145 20.04 64.5265 19.47 64.9105 18.954C65.2945 18.426 65.7385 17.994 66.2425 17.658C66.7345 17.298 67.2805 17.022 67.8805 16.83C68.4925 16.626 69.1165 16.506 69.7525 16.47C70.3885 16.422 71.0005 16.452 71.5885 16.56V20.088C70.9525 19.92 70.2445 19.872 69.4645 19.944C68.6965 20.016 67.9885 20.262 67.3405 20.682C66.7285 21.078 66.2425 21.558 65.8825 22.122C65.5345 22.686 65.2825 23.316 65.1265 24.012C64.9705 24.696 64.8925 25.422 64.8925 26.19V36H61.0945ZM73.5764 36V16.56H76.9244V21.276L76.4564 20.664C76.6964 20.04 77.0084 19.47 77.3924 18.954C77.7764 18.426 78.2204 17.994 78.7244 17.658C79.2164 17.298 79.7624 17.022 80.3624 16.83C80.9744 16.626 81.5984 16.506 82.2344 16.47C82.8704 16.422 83.4824 16.452 84.0704 16.56V20.088C83.4344 19.92 82.7264 19.872 81.9464 19.944C81.1784 20.016 80.4704 20.262 79.8224 20.682C79.2104 21.078 78.7244 21.558 78.3644 22.122C78.0164 22.686 77.7644 23.316 77.6084 24.012C77.4524 24.696 77.3744 25.422 77.3744 26.19V36H73.5764ZM88.1941 44.64L91.9561 34.398L92.0101 37.422L83.5321 16.56H87.4561L93.7921 32.67H92.6401L98.6881 16.56H102.504L91.7761 44.64H88.1941ZM117.085 36.522C114.721 36.522 112.795 36 111.307 34.956C109.819 33.912 108.907 32.442 108.571 30.546L112.423 29.952C112.663 30.96 113.215 31.758 114.079 32.346C114.955 32.922 116.041 33.21 117.337 33.21C118.513 33.21 119.431 32.97 120.091 32.49C120.763 32.01 121.099 31.35 121.099 30.51C121.099 30.018 120.979 29.622 120.739 29.322C120.511 29.01 120.025 28.716 119.281 28.44C118.537 28.164 117.403 27.822 115.879 27.414C114.211 26.982 112.885 26.52 111.901 26.028C110.929 25.524 110.233 24.942 109.813 24.282C109.405 23.61 109.201 22.8 109.201 21.852C109.201 20.676 109.513 19.65 110.137 18.774C110.761 17.898 111.637 17.22 112.765 16.74C113.905 16.26 115.237 16.02 116.761 16.02C118.249 16.02 119.575 16.254 120.739 16.722C121.903 17.19 122.845 17.856 123.565 18.72C124.285 19.572 124.717 20.574 124.861 21.726L121.009 22.428C120.877 21.492 120.439 20.754 119.695 20.214C118.951 19.674 117.985 19.38 116.797 19.332C115.657 19.284 114.733 19.476 114.025 19.908C113.317 20.328 112.963 20.91 112.963 21.654C112.963 22.086 113.095 22.452 113.359 22.752C113.635 23.052 114.163 23.34 114.943 23.616C115.723 23.892 116.875 24.222 118.399 24.606C120.031 25.026 121.327 25.494 122.287 26.01C123.247 26.514 123.931 27.12 124.339 27.828C124.759 28.524 124.969 29.37 124.969 30.366C124.969 32.286 124.267 33.792 122.863 34.884C121.471 35.976 119.545 36.522 117.085 36.522Z" fill="#1A1A1A"/>
<circle cx="103" cy="34" r="3" fill="#FFCF45"/>
</g>
</svg>

