<svg width="27" height="45" viewBox="0 0 27 45" fill="none" xmlns="http://www.w3.org/2000/svg">
<mask id="path-1-outside-1_27_1852" maskUnits="userSpaceOnUse" x="-2" y="-1" width="31" height="47" fill="black">
<rect fill="white" x="-2" y="-1" width="31" height="47"/>
<path d="M0.375 3.47266L3.24609 0.875L26.625 22.75L3.24609 44.625L0.375 42.0273L20.8828 22.75L0.375 3.47266Z"/>
</mask>
<path d="M0.375 3.47266L3.24609 0.875L26.625 22.75L3.24609 44.625L0.375 42.0273L20.8828 22.75L0.375 3.47266Z" fill="#A9A9A9"/>
<path d="M0.375 3.47266L-0.295913 2.73112L-1.09998 3.45861L-0.30991 4.20128L0.375 3.47266ZM3.24609 0.875L3.92932 0.144797L3.25747 -0.483842L2.57518 0.133464L3.24609 0.875ZM26.625 22.75L27.3082 23.4802L28.0886 22.75L27.3082 22.0198L26.625 22.75ZM3.24609 44.625L2.57518 45.3665L3.25747 45.9838L3.92932 45.3552L3.24609 44.625ZM0.375 42.0273L-0.30991 41.2987L-1.09998 42.0414L-0.295913 42.7689L0.375 42.0273ZM20.8828 22.75L21.5677 23.4786L22.3429 22.75L21.5677 22.0214L20.8828 22.75ZM1.04591 4.21419L3.91701 1.61654L2.57518 0.133464L-0.295913 2.73112L1.04591 4.21419ZM2.56286 1.6052L25.9418 23.4802L27.3082 22.0198L3.92932 0.144797L2.56286 1.6052ZM25.9418 22.0198L2.56286 43.8948L3.92932 45.3552L27.3082 23.4802L25.9418 22.0198ZM3.91701 43.8835L1.04591 41.2858L-0.295913 42.7689L2.57518 45.3665L3.91701 43.8835ZM1.05991 42.756L21.5677 23.4786L20.1979 22.0214L-0.30991 41.2987L1.05991 42.756ZM21.5677 22.0214L1.05991 2.74403L-0.30991 4.20128L20.1979 23.4786L21.5677 22.0214Z" fill="black" mask="url(#path-1-outside-1_27_1852)"/>
</svg>
