<svg width="58" height="58" viewBox="0 0 58 58" fill="none" xmlns="http://www.w3.org/2000/svg">
<circle cx="29" cy="29" r="29" fill="black"/>
<path d="M22.1378 44.4775C20.3258 44.4775 18.7598 44.0275 17.4398 43.1275C16.1318 42.2275 15.1178 41.0035 14.3978 39.4555C13.6898 37.8955 13.3358 36.1435 13.3358 34.1995C13.3358 32.2435 13.6958 30.4975 14.4158 28.9615C15.1358 27.4135 16.1558 26.1955 17.4758 25.3075C18.8078 24.4075 20.3858 23.9575 22.2098 23.9575C24.0458 23.9575 25.5878 24.4075 26.8358 25.3075C28.0958 26.1955 29.0438 27.4135 29.6798 28.9615C30.3278 30.5095 30.6518 32.2555 30.6518 34.1995C30.6518 36.1435 30.3278 37.8895 29.6798 39.4375C29.0318 40.9855 28.0778 42.2155 26.8178 43.1275C25.5578 44.0275 23.9978 44.4775 22.1378 44.4775ZM22.6598 41.0755C23.8958 41.0755 24.9038 40.7815 25.6838 40.1935C26.4638 39.6055 27.0338 38.7955 27.3938 37.7635C27.7538 36.7315 27.9338 35.5435 27.9338 34.1995C27.9338 32.8555 27.7478 31.6675 27.3758 30.6355C27.0158 29.6035 26.4518 28.7995 25.6838 28.2235C24.9278 27.6475 23.9618 27.3595 22.7858 27.3595C21.5378 27.3595 20.5118 27.6655 19.7078 28.2775C18.9038 28.8895 18.3038 29.7115 17.9078 30.7435C17.5238 31.7755 17.3318 32.9275 17.3318 34.1995C17.3318 35.4835 17.5238 36.6475 17.9078 37.6915C18.3038 38.7235 18.8918 39.5455 19.6718 40.1575C20.4638 40.7695 21.4598 41.0755 22.6598 41.0755ZM27.9338 43.9375V29.9515H27.5018V18.0175H31.2818V43.9375H27.9338Z" fill="white"/>
<circle cx="39.3125" cy="40.25" r="2.9375" fill="#FFCF45"/>
</svg>
